<svg width="512" height="512" viewBox="0 0 512 512" fill="none" xmlns="http://www.w3.org/2000/svg">
  <defs>
    <linearGradient id="violet" x1="124" y1="116" x2="280" y2="376" gradientUnits="userSpaceOnUse">
      <stop offset="0" stop-color="#C08BFF"/>
      <stop offset="1" stop-color="#8A4DFF"/>
    </linearGradient>
    <linearGradient id="blue" x1="260" y1="108" x2="384" y2="392" gradientUnits="userSpaceOnUse">
      <stop offset="0" stop-color="#A9F0FF"/>
      <stop offset="1" stop-color="#3C9DFF"/>
    </linearGradient>
    <filter id="glow" x="0" y="0" width="512" height="512" filterUnits="userSpaceOnUse" color-interpolation-filters="sRGB">
      <feGaussianBlur stdDeviation="8" result="blur" />
      <feColorMatrix in="blur" type="matrix" values="1 0 0 0 0.5 0 1 0 0 0.35 0 0 1 0 1 0 0 0 0.28 0" result="glow" />
      <feMerge>
        <feMergeNode in="glow" />
        <feMergeNode in="SourceGraphic" />
      </feMerge>
    </filter>
  </defs>
  <path d="M124 360L190 144H245L311 360H266L251 310H185L170 360H124ZM196 272H241L219 195L196 272Z" fill="url(#violet)" />
  <path d="M328 144H374V360H328V144Z" fill="url(#blue)" />
  <circle cx="381" cy="134" r="12" fill="#EAF8FF" filter="url(#glow)" />
  <path d="M332 164C352 150 371 146 388 146" stroke="#EAF8FF" stroke-opacity="0.5" stroke-width="10" stroke-linecap="round" />
  <path d="M169 378C203 392 243 392 282 378" stroke="#B56CFF" stroke-opacity="0.35" stroke-width="10" stroke-linecap="round" />
</svg>
